<?xml version="1.0" encoding="UTF-8"?>
<svg id="Layer_1" data-name="Layer 1" xmlns="http://www.w3.org/2000/svg" viewBox="0 0 352.76 352.31">
  <defs>
    <style>
      .cls-1 {
        fill: #100;
        stroke-width: 0px;
      }
    </style>
  </defs>
  <path class="cls-1" d="M176.43,352.31C78.8,352.32-.44,273.24,0,175.42.45,74.95,81.03.53,175.67,0c98.63-.55,177.16,78.2,177.09,176.43-.07,96.83-79.32,175.88-176.33,175.88ZM146.98,31.86c-10.99,8.39-21.72,16.91-29.42,28.59-3.15,4.77-5.01,12.63-9.32,16.05-5.67,4.5-11.55,8.32-16.69,13.52-4.2,4.24-7.97,8.89-11.21,13.9-.85,1.31-3.21,3.78-1.97,5.34,1.4,1.77,5.2.99,6.71.09,4.37-2.62,7.73-8.99,11.29-12.64,4.17-4.27,8.76-8.17,13.79-11.4,2.82-1.81,5.27-2.62,6.6-5.81,1.07-2.56,1.69-5.31,2.87-7.86,2.62-5.63,6.28-10.7,10.48-15.26,4.51-4.91,9.64-9.22,14.96-13.22,4.56-3.43,9.64-7.96,14.81-10.4,5.32-2.5,7.93,8.05,9.47,11.86.93,2.3,3.05,13.76,5.16,14.54,1.96.72,7.96-2.06,10.05-2.55,3.29-.77,6.63-1.27,9.98-1.74,6.45-.9,13.67-1.78,20.09-.23,3.48.84,2.91,1.58,1.26,4.48-1.68,2.95-3.62,5.81-5.54,8.6-3.67,5.33-7.64,10.46-11.89,15.35-2.35,2.71-2.86,4.21-5.39,1.91-2.01-1.83-3.42-4.91-5.31-7-1.95-2.16-4.09-4.15-6.36-5.97-.99-.8-4.14-3.93-5.4-3.8-.43.04-.13,4.25-.04,4.7.45,2.23,1.47,3.21,3.08,4.78,2.91,2.83,5.69,5.66,8.07,8.96,4.79,6.63,7.96,14.28,9.63,22.27,1.67,7.99,2.82,15.62,6.45,23.05,3.47,7.09,8.38,13.4,14.15,18.76,2.63,2.44,5.52,4.48,8.3,6.73,3.01,2.45,3.37,3.88.04,6.62-5.48,4.52-15.01,6.92-21.96,6.1-8.08-.94-15.07-6.17-22.53-9.03-6.17-2.37-13.46-3.61-20.01-2.19-15.18,3.28-19.69,22.61-20.17,35.93-.31,8.63,1.24,17.24,3.91,25.43.75,2.3,2.71,10.99,4.95,12.02,1.9.88,6.35-4.84,8.01-6.39,11.51-10.74,22.02-23.52,37.18-29.16,11.53-4.29,31.19-6.42,39.3,5.27,4.11,5.92,1.64,16.15-7.21,14.38-4.04-.81-7.16-3.94-11.4-4.61-3.96-.62-7.94.08-11.59,1.68-14.72,6.44-19.22,22.82-26.67,35.58,17.9-13.42,36.43-22.65,58.28-27.89,2.53-.61,10.07-.73,10.6-3.79.32-1.85-2.01-4.1-1.86-6.06.17-2.18,1.79-3.16,3.9-3.93,3.43-1.25,4.98.25,6.67,3.22.98,1.72,3.28,9.16,6.72,5.16,2.5-2.91-6.31-8.44-3.06-12.21,1.9-2.2,6.07-3.64,8.23-2.06,2.85,2.08,4.31,10.6,8.42,9.3,4.96-1.56-1.27-7.03-2.82-9.19-1.67-2.32-3.04-3.06-1.35-5.41.96-1.33,3.08-2.4,4.75-2.47,5.45-.21,6.72,7.02,10.97,7.94,1.11.24,2.65-.38,3.19-1.49.9-1.87-.16-1.76-1.39-3.03-1.65-1.71-7.26-5.37-7.19-8.07.07-2.64,5.88-5.37,7.95-4.8,3.59.99,7.22,8.74,11.24,7.85,3.89-.86,1.79-3.24.18-4.46-2.04-1.54-8.76-5.31-8.83-7.77-.07-2.75,4.36-4.39,6.29-3.85,3.66,1.01,9.37,7.81,13.06,6.97,4.85-1.12.61-3.76-1.16-4.77-2.3-1.31-10.92-4.63-10.02-7.63.86-2.85,5.29-3.22,7.42-2.56,3.51,1.08,11.02,7.49,14.6,5.82,4.98-2.32-1.77-4.12-3.35-4.8-10.02-4.34-20.22-8.32-30.33-12.45-2.66-1.09-12.18-3.21-11.5-6.59.86-4.24,7.42-2.58,9.96-1.96,10.85,2.68,21.63,5.63,32.46,8.41,5.65,1.45,21.96,5.2,17.77,14.33-1.85,4.03-8.85,7.81-12.28,10.62-4.28,3.5-8.56,7-12.84,10.49-4.56,3.73-9.13,7.46-13.69,11.19-4.25,3.48-9.35,6.74-12.95,10.9,6.53,1.3,14.3.06,20.97-.06,7.21-.13,14.44-.1,21.64-.39,4.11-.17,4.17-1.29,5.07-5.15.68-2.92,1.35-5.84,1.88-8.79.96-5.34-.21-12.75,2.09-17.63,2-4.24,6.78-5.47,7.65-10.53.89-5.16-1.72-9.88-5.15-13.5-1.34-1.41-3.55-2.7-4.41-4.4-1.05-2.08-.58-6.62-1.09-9.09-1.22-5.93-3.04-11.82-5.01-17.54C301.61,46.94,210.29-.53,129.17,25.69c-36.35,11.75-69.63,36.78-89.59,69.5-9.95,16.31-16.89,34.6-20.52,53.36-2.33,12.03-3.1,24.33-2.19,36.56.47,6.27,1.36,12.51,2.67,18.66,1,4.73,1.74,12.83,5,16.43,1.66-4.06,1.23-9.29,2.08-13.62.84-4.24,1.62-8.26,1.27-12.6-.78-9.6-1.53-19.02-.89-28.66,4.37-66.2,56.52-119.49,119.98-133.45ZM123.72,314.59c-8.37-6.69-16.76-12.34-22.49-21.75-1.51-2.47-5.45-11.07.15-5.97,3.99,3.64,8.04,7.11,12.5,10.18,15.39,10.58,34.22,16.46,52.95,15.68,21.23-.89,36.25-12.34,52.84-24.16,8.42-5.99,17.33-11.42,27.08-14.96,5.08-1.85,10.36-3.16,15.74-3.73,2-.21,11.77.55,11.59-1.4-.25-2.78-9.3-6.35-11.62-7.43-4.42-2.05-8.51-3.71-13.37-4.32-5.17-.64-9.66-2.29-14.68-3.51-5.19-1.27-10.38-1.39-15.65-2.01,15.44-5.54,32.43-4.7,47.98.07,14.1,4.32,24.48,12.15,35,22.14,3.55-6.74,1.53-17.58-1.27-24.35-1.43-3.45-3.63-4.98.17-6.88,3.71-1.86,8.2-2.83,12.25-3.61,2.8-.54,9.51,0,11.73-1.33,1.5-.9,1.62.08.42-1.55-.52-.7-2.23-1.58-3.06-2.11-6.6-4.21-14.07-6.79-21.74-8.22-29.59-5.52-63.3,1.56-90.5,13.61-13.59,6.02-25.32,15.15-36.49,24.83-9.53,8.25-19.6,15.81-32.31,18.13-12.98,2.37-26.5-1.36-37.68-8.03-5.61-3.35-10.66-7.6-14.95-12.53-1.84-2.12-3.54-4.35-5.1-6.68-1.26-1.88-2.62-5.95-4.5-3.31-1.39,1.95,1.41,10.01,2,12.19.84,3.14,1.9,6.22,3.06,9.25,2.37,6.22,4.82,13.38,8.45,19,6.88,10.68,20.05,18.24,31.52,22.74ZM121.01,124.49c3.48-3.76,8-5.66,11.68-8.98-4.68-3.35-12.36.57-15.43,4.28-1.24,1.5-10.82,15.51-8.91,16.81.88.6,5.25-2.16,6.41-2.56,2.69-.93,5.91-1.99,8.75-1.54-5.56,5.18-11.18,8.43-14.92,15.41-1.23,2.29-7.82,18.21-4.81,19.75-.08-.04,9.99-10.88,11.18-11.79,1.3-1,13.2-8.5,14.37-6.67.66,1.04-4.56,8.44-5.25,10.07-1.67,3.92-2.79,8.08-3.2,12.32-.7,7.22.23,17.7,5.09,23.43,2.38-9.87,2.73-19.23,8.34-28.13,3.91-6.21,9.53-11.15,16.45-13.7,7.17-2.64,15.08-2.59,22.5-1.12,9.99,1.99,17.75,8.52,27.27,11.53,3.77,1.19,10.93,2.16,14.18-.98,1.59-1.54,1.76-.59.69-2.65-.88-1.68-5.57-3.71-7.19-4.79-9.58-6.4-19.15-12.83-28.88-19.02-9.03-5.74-18.53-12.92-28.98-15.75-10.35-2.8-19.78.04-29.33,4.07ZM143.21,96.98c-.46-7.64.46-14.83,2.99-22.11,1.28-3.68,2.93-7.21,4.96-10.54.46-.76,4.79-8.08,5.97-7.72.75.23,1.19,19.33,1.64,21.47,1.19,5.58,1.52,10.75,8.32,10.38,4.52-.24,4.11-2.39,3.74-6.4-.66-7.27-1.56-14.52-3.34-21.61-.82-3.28-4.23-18.83-8.3-18.46-1.73.16-6,5.99-7.27,7.42-2.31,2.59-4.47,5.33-6.37,8.24-7.68,11.73-10.51,27.07-2.35,39.33ZM34.3,221.05c-.22,8.83,1.39,22.72,8.08,29.15.69-4.04-1.23-8.48-1.65-12.63-.48-4.83-.69-9.74-.64-14.59.09-9.5,1.59-18.96,4.27-28.07.26-.88,4-9.54,2.57-10.11-2.02-.8-5.92,8.81-6.48,10-3.86,8.22-6.4,17.11-6.16,26.25ZM56.36,233.27c-.74,11.32,3.86,22.8,9.71,32.24.81,1.31,2.62,5.4,4.11,5.9,2.63.88,1.14-1.71.49-3.17-2.11-4.77-3.92-9.65-5.43-14.64-3.29-10.91-5.4-22-4.84-33.42.17-3.46-.12-10.76-1.83-3.43-1.26,5.43-2.44,10.91-2.22,16.52ZM170.37,108.42c-4.24.02-4.59.24-3.4,1.97,3.98,5.8,8.32,11.27,14.96,14.28,1.87.85,3.91,3.19,5.66,1.97,1.85-1.29.23-4.12.43-6.26.03-.37-.16-.77-.28-1.15-2.47-7.49-7.88-10.86-17.37-10.82ZM156.14,248.69c1.78-.47-4.12-3.42-5.18-4.12-3.66-2.41-7.09-5.16-10.24-8.21-3.22-3.12-6.09-6.57-8.76-10.16-2.56-3.45-4.52-7.9-7.6-10.82-1.8,7.55,6.2,17.32,11.16,22.35,5.63,5.71,12.69,9.57,20.62,10.96Z"/>
  <path class="cls-1" d="M198.41,46.99c-5.97-.07-11.87.5-17.65,1.97-1.32.34-1.97.08-2.34-1.24-1.64-5.81-4.08-11.29-7.12-16.49-1.04-1.79-.53-2.3,1.36-2.34,19.37-.38,38.18,2.52,56.33,9.4,25.63,9.73,47.21,25.18,64.74,46.21,15.56,18.66,26.48,39.65,31.04,63.71.37,1.95-.08,2.11-1.87,1.64-9.96-2.64-19.95-5.18-29.94-7.7-1.23-.31-1.86-.89-2.27-2.11-11.83-35.18-35.08-59.4-69.78-72.61-1.45-.55-1.71-.98-.82-2.32,1.36-2.06,2.46-4.28,3.74-6.39,2.3-3.78,1.59-6.95-2.4-8.75-6.68-3.02-13.83-3.21-21.01-2.98-.67.02-1.34,0-2,0Z"/>
  <path class="cls-1" d="M269.88,184.39c1.86,1.51,4.73,2.93,4.47,4.83-.35,2.59-3.47,4.39-5.89,4.56-2.24.16-4.4-2.9-4.25-4.72.2-2.51,3.68-2.93,5.68-4.67Z"/>
  <path class="cls-1" d="M278.54,186.16c-1.65-1.68-4.69-2.78-4.43-5.02.23-2.01,2.91-4.15,5.13-3.92,2.07.21,5.08,2.13,4.81,4.24-.27,2.12-3.2,3.43-5.51,4.7Z"/>
  <path class="cls-1" d="M256.52,200.71c-6.68-3.64.18-11.14,4.97-7.69,4.61,3.31-1.5,7.63-4.97,7.69Z"/>
  <path class="cls-1" d="M300.31,165.76c.2,5.21-9.54,3.92-10.9.67-.8-1.92,1.86-4.32,3.54-4.49.86-.09,7.43,2.7,7.36,3.82Z"/>
  <path class="cls-1" d="M292.72,173.7c-.17,4.75-8.53,4.06-10.06.7-.8-1.77,1.66-4.71,3.57-4.9,1.63-.16,5.82,2.72,6.48,4.2Z"/>
  <path class="cls-1" d="M244.81,206.25c-5.83-.98-1.13-7.62,3.02-7.55,1.93.03,4.07,1.36,3.61,3.74-.53,2.71-4.7,2.83-6.63,3.81Z"/>
  <path class="cls-1" d="M258.26,188.18c-1.84,1.98-9.05,6.64-9.17.58-.04-1.98,2.22-3.64,4-4.02,2.92-.61,3.7,1.07,5.18,3.43Z"/>
  <path class="cls-1" d="M267.79,181.61c-1.75,1.47-3.62,4.03-6.18,3.43-2.09-.49-3.55-2.69-2.66-4.76,2.3-5.37,6.7-.72,8.84,1.33Z"/>
  <path class="cls-1" d="M241.7,198.19c-5.66-1.63-.91-8.38,3.38-7.26,1.73.45,2.85,2.28,2.15,3.99-.86,2.07-3.86,2.24-5.53,3.27Z"/>
  <path class="cls-1" d="M275.63,174.61c-1.17,1.75-2.58,3.59-4.34,3.64-2.02.06-4.12-1.89-4.35-3.7-.23-1.81,2.03-3.52,3.85-3.53,2.04-.02,3.37,2,4.84,3.59Z"/>
  <path class="cls-1" d="M282.59,167.82c-.91,1.48-1.79,3.3-3.7,3.48-1.55.15-4.16-1.63-4.49-3.07-1.32-5.75,6.31-2.94,8.19-.41Z"/>
  <path class="cls-1" d="M249.37,177.53c5.28,2.42,1.36,8.57-2.89,6.7-4.97-2.19,1.06-5.6,2.89-6.7Z"/>
  <path class="cls-1" d="M283.64,157.78c1.12.81,3.26.79,4.06,2,1.12,1.68.39,3.91-1.72,4.46-4.15,1.08-8.4-5.85-2.35-6.46Z"/>
  <path class="cls-1" d="M235.53,187.08c1.32-2.75,8.37-5.28,7.71-.19-.22,1.7-2.46,2.95-3.97,3.2-2.52.42-3.25-.56-3.74-3.01Z"/>
  <path class="cls-1" d="M260.66,174.87c-1.73,2.56-8.85,5.3-7.65-.42.28-1.34,1.92-2.52,3.28-2.67,2.46-.26,2.85,1.5,4.38,3.09Z"/>
  <path class="cls-1" d="M267.62,168.76c-1.57,2.31-7.53,5.36-7.34-.15.19-5.61,5.69-1.52,7.34.15Z"/>
  <path class="cls-1" d="M270.4,166.07c-2.28-1.32-6.56-6.16-.82-6.35,1.44-.05,3.96,1.45,3.94,3.11-.02,1.65-1.92,2.52-3.12,3.24Z"/>
  <path class="cls-1" d="M279.68,156.67c-1.23,1.2-1.32,2.62-3.21,2.88-1.2.16-3.35-1.01-3.86-2.09-2.55-5.44,5.22-2.65,7.06-.79Z"/>
</svg>