<?xml version="1.0" encoding="UTF-8"?><svg id="Layer_1" xmlns="http://www.w3.org/2000/svg" xmlns:xlink="http://www.w3.org/1999/xlink" viewBox="0 0 161.09 190.1"><defs><style>.cls-1{fill:url(#linear-gradient);}.cls-1,.cls-2,.cls-3,.cls-4,.cls-5,.cls-6,.cls-7,.cls-8{stroke-width:0px;}.cls-2{fill:url(#linear-gradient-6);}.cls-3{fill:url(#linear-gradient-5);}.cls-9{opacity:.75;}.cls-4{fill:url(#linear-gradient-2);}.cls-5{fill:url(#linear-gradient-7);}.cls-6{fill:url(#linear-gradient-3);}.cls-7{fill:url(#linear-gradient-8);}.cls-8{fill:url(#linear-gradient-4);}</style><linearGradient id="linear-gradient" x1="1.98" y1="119.75" x2="133.75" y2="119.75" gradientUnits="userSpaceOnUse"><stop offset="0" stop-color="#fff33b"/><stop offset=".04" stop-color="#fee62d"/><stop offset=".12" stop-color="#fdd51b"/><stop offset=".2" stop-color="#fdca0f"/><stop offset=".28" stop-color="#fdc70c"/><stop offset=".62" stop-color="#f3903f"/><stop offset=".78" stop-color="#ed683c"/><stop offset="1" stop-color="#e93e3a"/></linearGradient><linearGradient id="linear-gradient-2" x1="65.54" y1="123.12" x2="157.86" y2="123.12" xlink:href="#linear-gradient"/><linearGradient id="linear-gradient-3" x1="98.23" y1="52.33" x2="153.54" y2="52.33" xlink:href="#linear-gradient"/><linearGradient id="linear-gradient-4" x1="71.51" y1="93.98" x2="139.81" y2="93.98" xlink:href="#linear-gradient"/><linearGradient id="linear-gradient-5" x1="53.49" y1="23.39" x2="86.84" y2="23.39" xlink:href="#linear-gradient"/><linearGradient id="linear-gradient-6" x1="83.43" y1="63.57" x2="105.15" y2="63.57" xlink:href="#linear-gradient"/><linearGradient id="linear-gradient-7" x1="24.8" y1="38.7" x2="44.82" y2="38.7" xlink:href="#linear-gradient"/><linearGradient id="linear-gradient-8" x1="81.93" y1="15.1" x2="94.8" y2="15.1" xlink:href="#linear-gradient"/></defs><g class="cls-9"><path class="cls-1" d="M51.03,63.53c-4.3-.26-8.52.36-12.72,1.23-.56.12-1.26.51-1.71-.09-.42-.56.02-1.18.25-1.73,1.57-3.6,3.99-6.6,6.77-9.33.52-.51,1.11-.96,1.47-1.7-16.54,2.83-29.89,11.05-40.56,23.98,1.12-.37,2.23-.75,3.36-1.09,5.15-1.57,10.38-1.86,15.68-1.04.56.09,1.39-.16,1.56.61.15.7-.62.98-1.08,1.33-9.02,7.03-15.45,15.96-19.14,26.76-5.07,14.84-3.57,29.1,4.4,42.64.27.46.61.88,1.1,1.59-3.59-18.33-.36-34.45,12.99-47.89.89.78.37,1.25.21,1.7-8.11,22.07-3.14,41.62,11.8,58.98,12.8,14.88,29.34,23.51,48.52,26.77,15.41,2.62,30.57,1.73,44.68-6.07,1.78-.98,3.49-2.06,5.14-3.76-2.07-.21-3.77.49-5.5.72-11.66,1.5-21.56-1.86-29.55-10.57-1.74-1.9-3.4-3.87-5.07-5.83-4.36-5.14-9.61-9.14-15.52-12.32-6.82-3.67-13.47-7.59-19.06-13.06-8.73-8.55-14.39-18.76-15.61-30.96-1.34-13.44,2.49-25.23,12.83-34.43,1.8-1.6,4.01-2.65,6.29-4.07-3.86-1.79-7.69-2.14-11.52-2.37Z"/><path class="cls-4" d="M66.17,101.69c-2.28,9.12,1.78,19.24,8.55,24.86,4.37,3.63,9.59,5.55,14.94,7.16,3.38,1.02,6.75,2.07,9.95,3.56,5.06,2.35,9.15,5.78,11.76,10.79.4.77.9,1.29,1.82,1.43,19.08,2.78,35.64-4.56,44.17-23.4.23-.52.62-1.04.45-1.71-11.31,8.01-23.86,8.51-36.81,6.04-7.92-1.52-15.46-4.11-21.95-9.15-1.95-1.51-3.61-3.29-4.91-5.38-3.55-5.71-1.03-12.17,5.44-14.01.77-.22,1.55-.38,2.67-.65-3.93-2.38-7.9-3.79-12.11-4.55-8.39-1.52-23.67.56-23.98,5"/><path class="cls-6" d="M153.4,91.74c.5-1.82-.29-3.36-2.72-4.66-6.33-3.4-11.99-7.63-16.7-13.11-4.13-4.81-6.07-10.4-6.03-16.64.04-6.07-.77-11.89-3.84-17.24-1.15-2.01-2.36-3.98-4.01-5.61-1.05-1.04-1.04-1.96-.54-3.26,2.41-6.24,3.93-12.67,3.96-19.41.01-2.38-.26-2.6-2.41-1.68-7.76,3.33-15.15,7.29-21.68,12.71-.49.41-1.39.7-1.18,1.48.16.59,1.02.54,1.57.77,11.85,5.03,19.02,13.77,21.04,26.58.7,4.42.2,8.95,1.18,13.34,2.42,10.81,9.18,17.85,19.17,22.08,1.48.63,3.06.52,4.61.57.33.01.71.01.87.39.18.45-.2.59-.49.73-1.59.72-2.58,1.8-2.11,3.67.37,1.46,2.35,2.55,4.47,2.55,2.44,0,4.27-1.25,4.83-3.28Z"/><path class="cls-8" d="M106.05,97.71c4.76,3.69,9.7,7.06,15.78,8.29,5.99,1.21,11.66.46,16.95-2.72,1.04-.63,1.59-1.05.18-1.96-1.19-.77-2.14-1.87-2.84-3.12-.48-.85-1.16-1.13-2.09-1-7.52,1.02-14.25-1.38-20.7-4.89-5.15-2.8-10.04-6.09-15.56-8.18-7.71-2.93-15.47-3.92-23.35-.68-.93.38-1.88.73-2.9,1.66,13.74-1.27,24.46,4.8,34.54,12.6Z"/><path class="cls-3" d="M60.75,24.77c.82-2.33.95-2.35,2.85-.73,2.59,2.21,5.62,3.77,8.53,5.5,5.01,2.97,9.93,6.06,14.67,9.88.18-1.02-.3-1.6-.59-2.2-4.1-8.65-9.95-16.1-15.93-23.47-2.73-3.37-5.49-6.72-7.77-10.41-.63-1.01-1.18-1.28-1.91-.14-6.82,10.75-9.64,22.01-4.38,34.29,1.04,2.44,2.74,4.47,4.84,6.84-2.46-6.81-2.53-13.18-.3-19.55Z"/><path class="cls-2" d="M92.64,66.26c1.73,2.21,4.24,3.04,6.94,3.43,1.46.21,2.93.46,4.37.78,1.06.23,1.33.04,1.15-1.12-1.1-6.88-5.58-11.36-12.49-12.4-3.8-.57-6.22-.51-9.18.36,4.29,2,6.6,5.61,9.21,8.95Z"/><path class="cls-5" d="M40.46,38.31c1.43-.57,3.48-.52,4.16-1.82.68-1.28-.61-2.92-.82-4.44-.02-.13-.06-.26-.08-.4-.74-3.77-.76-3.8-3.73-1.45-5.95,4.72-11.1,10.12-14.49,17.02-.17.35-.31.71-.7,1.57,4.92-4.61,9.86-8.19,15.65-10.49Z"/><path class="cls-7" d="M82.83,11.41c-1.22,0-.99.61-.54,1.27,1.26,1.84,2.57,3.65,3.81,5.51.51.77,1.01.74,1.67.24,2.21-1.65,4.44-3.29,7.03-5.2-4.18-1.36-8.04-1.82-11.97-1.82Z"/></g></svg>