<?xml version="1.0" encoding="UTF-8"?><svg id="Layer_1" xmlns="http://www.w3.org/2000/svg" width="540.76" height="578.4" xmlns:xlink="http://www.w3.org/1999/xlink" viewBox="0 0 540.76 578.4"><defs><style>.cls-1{fill:url(#linear-gradient);}.cls-1,.cls-2,.cls-3,.cls-4,.cls-5,.cls-6,.cls-7,.cls-8{stroke-width:0px;}.cls-2{fill:url(#linear-gradient-6);}.cls-3{fill:url(#linear-gradient-5);}.cls-9{opacity:.78;}.cls-4{fill:url(#linear-gradient-2);}.cls-5{fill:url(#linear-gradient-7);}.cls-6{fill:url(#linear-gradient-3);}.cls-7{fill:url(#linear-gradient-8);}.cls-8{fill:url(#linear-gradient-4);}</style><linearGradient id="linear-gradient" x1="99.07" y1="504.43" x2="540.76" y2="504.43" gradientUnits="userSpaceOnUse"><stop offset="0" stop-color="#fff33b"/><stop offset=".04" stop-color="#fee62d"/><stop offset=".12" stop-color="#fdd51b"/><stop offset=".2" stop-color="#fdca0f"/><stop offset=".28" stop-color="#fdc70c"/><stop offset=".67" stop-color="#f3903f"/><stop offset=".89" stop-color="#ed683c"/><stop offset="1" stop-color="#e93e3a"/></linearGradient><linearGradient id="linear-gradient-2" x1="155.37" y1="222.32" x2="409.8" y2="222.32" xlink:href="#linear-gradient"/><linearGradient id="linear-gradient-3" x1="153.12" y1="386.42" x2="301.3" y2="386.42" xlink:href="#linear-gradient"/><linearGradient id="linear-gradient-4" x1="53.16" y1="176.18" x2="182.97" y2="176.18" xlink:href="#linear-gradient"/><linearGradient id="linear-gradient-5" x1="0" y1="363.45" x2="28.5" y2="363.45" xlink:href="#linear-gradient"/><linearGradient id="linear-gradient-6" x1="49.62" y1="420.78" x2="84.66" y2="420.78" xlink:href="#linear-gradient"/><linearGradient id="linear-gradient-7" x1="252.36" y1="36.97" x2="287.79" y2="36.97" xlink:href="#linear-gradient"/><linearGradient id="linear-gradient-8" x1="297.96" y1="138.18" x2="346.22" y2="138.18" xlink:href="#linear-gradient"/></defs><g class="cls-9"><path class="cls-1" d="M470.42,450.68c13.41-1.13,26.11,3.78,38.28,8.75,3.74,1.53,34.23,14.75,31.93,20.09-1.11,2.59-29.45,1.83-33.54,2.48-14,2.24-27.59,6.62-40.54,12.35-50.5,22.37-87.22,68.17-142.46,80.41-50.12,11.1-105-4.21-146.67-32.95-10.08-6.95-19.58-14.75-28.09-23.56-4.3-4.45-6.8-7.78-6.67-.34.09,5.59,6.02,13.5,9.01,18.19,6.46,10.15,14.76,18.99,23.6,27.1,3.23,2.97,9.88,6.88,12.32,10.58,2.92,4.43.65,2.87-3.58,1.25-25.97-9.93-46.54-36.44-59.96-59.62-14.56-25.15-24.96-55.67-24.96-84.97,13.33,23.41,29.33,43.33,52.19,58.03,22.29,14.33,44.43,16.99,69.43,22.78.62-.21,1.28-.64,1.88-.58,33.23,3.19,63.62-4.51,90.83-23.95,8.59-6.14,16.79-12.81,25.17-19.24l.1.09c-11.21,34.19-54.73,54.97-86.22,64.77,31.28.74,58.72-13.59,82.89-32.2,21.5-16.55,51.71-43.63,81.21-40.66-4.78,5.79-10.81,10.6-16.34,15.66,27.93-9.53,56.21-14.96,87.27-12.4-6.84-4.84-11.96-8.45-17.07-12.06Z"/><path class="cls-4" d="M409.8,236.06c-16.67,17.79-43.88,2.32-60.6-6.6-21.34-11.39-45.65-19.22-70.05-15.59-21.52,3.2-40.91,14.33-52.99,32.55-5.82,8.78-10.03,18.65-13.22,28.67-3.93,12.34-3.49,25.42-6.98,37.6-11.75-14.05-12.8-38.5-10.57-55.72,1.2-9.27,3.42-18.43,7.17-27.01.9-2.05,12.13-20.38,11.78-20.73-4.43-4.45-28.11,11.24-31.78,13.95-10.76,7.97-19.54,18.35-27.18,29.27.31-17.73,5-35.19,14.26-50.37,2.32-3.8,30.1-32.87,31.22-30.73-2.86-5.45-30.71,8.3-34.64,9.52,5.22-18.47,16.12-35.59,31.24-47.22,2.55-.21,20.15-3.67,21.28-.02.2.64-22.93,16.38-25.04,21.74,18.42-7.49,34.2-14.85,54.78-12.53,19.41,2.19,35.77,11.81,52.07,21.86,37.05,22.84,73.19,47.03,109.27,71.37Z"/><path class="cls-6" d="M275.85,432.2c3.57,1.51,26.23,8.32,25.43,12.59-.95,5.08-23.22,2.92-26.44,2.63-21.99-2-42.64-11.46-60.26-24.49-4.61-3.41-9.02-7.09-13.16-11.06-1.04-.99-6.41-7.9-8.09-8.14-8.23-1.19,3.84,20.87,5.75,24.45,4.67,8.79,10.3,17.04,16.33,24.96,4.28,5.62,15.88,14.71,16.67,22.04-9.35.99-22.32-9.55-29.38-14.79-8.24-6.12-15.72-13.25-22.1-21.29-15.36-19.34-23.73-43.47-26.49-67.86-1.5-13.2-1.22-26.55.6-39.71.64-4.63,3.69-33.62,10.33-33.93,3.69-.17,11.55,23.11,13.99,27.25,6.91,11.71,16.67,21.57,23.44,33.23,2.51,31.66,32.95,66.38,64.44,73.3,2.88.63,5.73,3.3,8.95.83Z"/><path class="cls-8" d="M114.48,119.2c17.62-23.15,37.32-44.09,62.71-58.97,1.63-.96,3.5-1.51,5.26-2.25.22,9.28,2.37,18.15-3.86,25.23-5.09,5.78-12.12,10.48-17.51,16.12-11.38,11.92-21.16,25.28-29.33,39.58-7.93,13.86-14.4,28.57-19.63,43.65-3.08,8.89-5.63,17.94-7.69,27.12-2.19,9.73-2.3,21.71-6.16,30.84-1.92-3.89-3.32-25.39-6.81-26.3-5.14-1.33-12.64,15.42-14.24,18.68-9.49,19.36-13.81,40.32-17.07,61.48-12.63-29.88-7.2-66.31,9.22-93.65,4.05-6.75,8.81-13.07,14.06-18.93,6.19-6.9,7.9-10.83,10.49-19.58,4.64-15.66,14.12-28.33,20.58-43.03Z"/><path class="cls-3" d="M28.5,289.79c-17.9,49.65-20.55,97.82-10.26,147.32-28.31-21.6-22.73-112.39,10.26-147.32Z"/><path class="cls-2" d="M57.63,355.19c-3.02,47.02,7.35,89.81,27.02,131.19-29.46-18.91-45.79-96.38-27.02-131.19Z"/><path class="cls-5" d="M252.36,41.14c1.8-8.39,5.58-16.02,10.16-23.21,3-4.71,9.23-16.12,14.6-17.93,2.36,25.16,1.01,47.03,10.67,71.05-14.83,8.26-31.45-1.9-34.35-21.03-.45-2.95-.73-5.92-1.08-8.89Z"/><path class="cls-7" d="M307.38,117.65c25.14-.19,39.51,13.56,38.81,36.86-.11,3.74-.87,5.23-5.08,3.54-18.31-7.36-31.74-20.22-42.31-36.49-1.53-2.36-.99-3.71,1.81-3.88,2.25-.14,4.51-.03,6.77-.03Z"/></g></svg>